<svg width="100%" height="100%" viewBox="0 0 1320 224" fill="none" xmlns="http://www.w3.org/2000/svg">
<mask id="mask0_7053_2363" style="mask-type:luminance" maskUnits="userSpaceOnUse" x="0" y="0" width="1320" height="224">
<path d="M0 0H1320V224H0V0Z" fill="white"/>
</mask>
<g mask="url(#mask0_7053_2363)">
<path d="M27.3497 114.372L80.2223 180.575L95.7489 168.275L50.8553 113.232L89.5764 63.5855L73.819 51.9273L27.3497 114.372ZM0 4.48V177.469H20.1334V0L0 4.48ZM113.674 144.551C113.346 139.197 114.279 133.841 116.394 128.925C118.509 124.009 121.746 119.673 125.839 116.276C133.918 109.791 145.691 106.543 161.167 106.512H184.392V98.6924C184.392 79.744 176.212 70.2647 159.852 70.2647C154.282 70.3162 148.74 71.0687 143.352 72.5047C137.912 73.9049 132.602 75.7855 127.485 78.1251L121.563 63.5855C127.656 60.0822 134.175 57.4021 140.954 55.6131C147.54 53.7925 154.331 52.8479 161.157 52.8029C189.521 52.7011 203.712 68.1469 203.712 99.1505V177.459H188.738L186.339 164.019C180.581 168.807 174.119 172.652 167.189 175.412C161.045 177.974 154.481 179.339 147.839 179.434C143.256 179.7 138.668 179.013 134.356 177.414C130.045 175.816 126.101 173.339 122.767 170.138C119.629 166.708 117.205 162.67 115.643 158.266C114.08 153.862 113.411 149.183 113.674 144.511M151.472 162.889C154.383 162.868 157.263 162.481 160.073 161.748C163.114 160.995 166.105 160.028 169.016 158.857C171.937 157.676 174.737 156.209 177.396 154.499C179.875 152.87 182.214 151.017 184.392 149.001V120.369H163.446C152.837 120.369 145.109 122.233 140.241 125.949C137.679 128.067 135.66 130.783 134.358 133.865C133.056 136.946 132.509 140.302 132.764 143.645C132.764 156.474 138.996 162.889 151.472 162.889ZM259.606 177.469H239.473V4.48L259.606 0V177.469ZM313.412 51.9273L329.169 63.5855L290.438 113.385L335.342 168.428L319.705 180.575L266.752 114.372L313.422 51.9273H313.412ZM353.157 144.551C352.829 139.201 353.757 133.849 355.865 128.934C357.973 124.018 361.2 119.681 365.281 116.276C373.391 109.78 385.153 106.512 400.64 106.512H423.834V98.6924C423.834 79.744 415.665 70.2647 399.325 70.2647C393.741 70.3129 388.185 71.0653 382.785 72.5047C377.348 73.9057 372.041 75.7863 366.927 78.1251L360.865 63.5855C366.955 60.0901 373.466 57.4103 380.236 55.6131C386.838 53.7892 393.647 52.8445 400.489 52.8029C428.953 52.7011 443.185 68.1469 443.185 99.1505V177.459H428.21L425.822 164.019C420.057 168.809 413.589 172.653 406.652 175.412C400.511 177.973 393.95 179.337 387.311 179.434C382.728 179.7 378.14 179.013 373.829 177.414C369.517 175.816 365.574 173.339 362.24 170.138C359.108 166.705 356.692 162.665 355.136 158.261C353.58 153.858 352.917 149.181 353.187 144.511M390.794 162.919C393.705 162.899 396.615 162.522 399.436 161.789C402.467 161.025 405.447 160.058 408.348 158.897C414.035 156.605 419.25 153.256 423.724 149.021V120.41H402.808C392.179 120.41 384.441 122.263 379.573 125.99C377.046 128.126 375.063 130.849 373.793 133.928C372.523 137.006 372.003 140.35 372.277 143.676C372.277 156.505 378.449 162.919 390.794 162.919ZM524.08 53.0676C540.69 53.0676 553.788 58.5658 563.262 69.6233C572.727 80.6604 577.474 96.4524 577.474 117.03C577.474 137.597 572.797 152.941 563.373 163.795C553.939 174.649 540.921 180.157 524.08 180.157C507.238 180.157 494.412 174.689 484.907 163.795C475.402 152.9 470.685 137.22 470.685 117.03C470.685 96.8393 475.473 80.6298 485.017 69.6233C494.552 58.6065 507.469 53.0676 524.08 53.0676ZM524.08 69.6233C519.374 69.392 514.687 70.3779 510.459 72.4884C506.232 74.5989 502.602 77.7648 499.912 81.6887C494.291 89.7324 491.481 101.543 491.481 117.03C491.481 132.516 494.291 144.012 499.912 151.841C502.844 155.518 506.55 158.483 510.758 160.52C514.965 162.557 519.568 163.614 524.23 163.614C528.892 163.614 533.495 162.557 537.703 160.52C541.911 158.483 545.616 155.518 548.549 151.841C554.169 144.022 556.98 132.415 556.98 117.03C556.98 101.543 554.169 89.7425 548.549 81.6989C545.824 77.7559 542.157 74.5795 537.891 72.4674C533.625 70.3553 528.901 69.3766 524.16 69.6233M608.417 167.786L630.869 145.009L653.321 167.776L630.869 190.553L608.417 167.786ZM612.793 10.6705H648.985L644.147 121.551H617.952L612.793 10.6705ZM678.021 53.6378H699.87L704.246 65.52C714.407 55.64 727.89 50.0491 741.964 49.8807C756.717 49.8807 767.256 55.0022 773.248 65.52C783.271 55.6168 796.673 50.0153 810.664 49.8807C834.802 49.8807 848.08 63.8909 848.08 94.9353V176.624H816.987V96.9105C816.987 83.1345 811.898 77.3207 797.647 77.3207C791.053 77.3207 784.519 78.512 778.336 80.8131V176.736H747.504V97.0327C747.504 83.2567 742.676 77.4429 728.384 77.4429C721.73 77.5447 715.136 78.736 708.853 80.9353V176.868H678.021V53.6378ZM905.148 177.571V224.041H874.316V53.6378H896.166L899.909 63.8909C904.439 59.2535 909.865 55.6154 915.846 53.2046C921.827 50.7937 928.234 49.6622 934.666 49.8807C966.401 49.8807 980.694 73.9505 980.694 112.896C980.694 153.776 957.68 180.116 924.75 180.116C918.129 180.234 911.526 179.376 905.148 177.571ZM905.148 79.52V155.863C908.862 156.403 912.616 156.627 916.369 156.545C940.768 156.545 949.49 139.501 949.49 112.896C949.49 90.1193 944.211 74.928 924.198 74.928C917.603 75.1127 911.117 76.6694 905.148 79.52ZM1047.64 101.696H1066.98V97.5215C1066.98 83.9695 1062.82 76.2618 1044.53 76.2618C1033.14 76.1561 1021.9 78.9646 1011.87 84.4276L1003.34 62.944C1016.77 54.3459 1032.34 49.8142 1048.23 49.8807C1079.29 49.8807 1095.6 65.296 1095.6 97.2567V176.624H1073.97L1070.53 166.116C1060.16 174.671 1047.3 179.513 1033.94 179.892C1010.25 179.892 997.123 165.658 997.123 141.171C997.224 115.248 1014.75 101.696 1047.64 101.696ZM1066.98 145.804V121.775H1050.41C1033.83 121.775 1025.08 128.535 1025.08 140.753C1025.08 149.642 1030.16 155.487 1040.26 155.487C1049.98 155.366 1059.38 151.959 1066.98 145.804ZM1208.08 81.6175C1198.84 77.2899 1188.78 75.0592 1178.59 75.0807C1160.68 75.0807 1148.67 86.0567 1148.67 115.014C1148.67 143.981 1161.09 154.458 1181.56 154.458C1192.24 154.066 1202.76 151.699 1212.61 147.473L1219.75 169.151C1206.44 176.566 1191.46 180.345 1176.28 180.116C1136.91 180.116 1117.61 156.545 1117.61 115.248C1117.61 75.5796 1136.91 49.8807 1176.73 49.8807C1190.93 49.4154 1204.97 53.0069 1217.26 60.2458L1208.08 81.6175ZM1228.41 55.9491L1247.75 53.6378V28.896L1279.03 22.0945V53.6378H1315.4V77.2087H1279.03V130.663C1279.03 149.642 1283.86 153.43 1292.84 153.43C1299.7 153.202 1306.47 151.791 1312.85 149.255L1320 171.197C1309.12 177.162 1296.94 180.28 1284.57 180.269C1259.01 180.269 1247.75 164.406 1247.75 132.893V77.2087H1228.41V55.9491Z" fill="#DDDDDD"/>
</g>
</svg>
